<svg width="128" height="128" viewBox="0 0 128 128" fill="none" xmlns="http://www.w3.org/2000/svg">
<g clip-path="url(#clip0)">
<rect width="128" height="128" fill="#6424FB"/>
<path d="M90.9181 44.7654H73.5862L59.2065 67.5428V26H44.496V91.6407H57.3741L66.7399 78.5634L76.1058 91.6407H94.9393L75.4186 66.4255L90.9181 44.7654Z" fill="white"/>
<path fill-rule="evenodd" clip-rule="evenodd" d="M89.1365 68.1776C89.1365 54.6178 100.157 43.6227 113.747 43.6227C127.363 43.6227 138.384 54.6178 138.358 68.1776C138.358 81.7375 127.338 92.7326 113.747 92.7326C100.157 92.7326 89.1365 81.7375 89.1365 68.1776ZM103.898 68.203C103.898 74.2466 108.301 78.6141 113.747 78.6141C119.194 78.6141 123.597 74.2212 123.597 68.203C123.597 62.1595 119.194 57.7665 113.747 57.7665C108.301 57.7665 103.898 62.1595 103.898 68.203Z" fill="white"/>
<path fill-rule="evenodd" clip-rule="evenodd" d="M-9.3831 68.1776C-9.3831 54.6178 1.63705 43.6227 15.2277 43.6227C28.8184 43.6227 39.8385 54.6178 39.8385 68.1776C39.8385 69.752 39.6858 71.301 39.4059 72.7991H5.35285C7.03259 77.5476 10.7484 79.96 15.355 79.96C19.7579 79.96 21.7431 78.6649 23.2956 76.8366H38.2606C34.7484 86.1304 25.7643 92.7326 15.2277 92.7326C1.63705 92.7326 -9.3831 81.7375 -9.3831 68.1776ZM15.2277 56.4969C10.7484 56.4969 6.93078 59.1377 5.35284 63.5561H25.1026C23.5501 59.1377 19.707 56.4969 15.2277 56.4969Z" fill="white"/>
</g>
<defs>
<clipPath id="clip0">
<rect width="128" height="128" fill="white"/>
</clipPath>
</defs>
</svg>
