<svg width="128" height="128" viewBox="0 0 128 128" fill="none" xmlns="http://www.w3.org/2000/svg">
<rect width="128" height="128" fill="#6424FB"/>
<path d="M30.3044 83.5836C32.427 81.9648 35.4599 82.3732 37.0787 84.4957C43.4445 92.8427 53.304 97.8333 64 97.8333C80.9037 97.8333 94.912 85.437 97.4301 69.2393L94.001 72.6657C92.1135 74.5532 89.0532 74.5532 87.1656 72.6657C85.2781 70.7781 85.2781 67.7178 87.1656 65.8303L99.249 53.7469C101.137 51.8594 104.197 51.8594 106.084 53.7469L118.168 65.8303C120.055 67.7178 120.055 70.7781 118.168 72.6657C116.28 74.5532 113.22 74.5532 111.332 72.6657L107.261 68.5903C104.967 90.457 86.474 107.5 64 107.5C50.2561 107.5 37.5676 101.077 29.3923 90.3578C27.7735 88.2352 28.1819 85.2023 30.3044 83.5836ZM21.9157 74.253L9.83232 62.1697C7.94478 60.2822 7.94478 57.2219 9.83232 55.3343C11.5747 53.592 14.3163 53.458 16.2123 54.9323L16.6677 55.3343L20.7393 59.4097C23.0326 37.543 41.526 20.5 64 20.5C77.1459 20.5 89.3419 26.3732 97.5523 36.3127C99.2523 38.3707 98.9621 41.4172 96.904 43.1173C94.846 44.8173 91.7995 44.527 90.0995 42.469C83.7064 34.7295 74.2313 30.1667 64 30.1667C47.0963 30.1667 33.088 42.563 30.5699 58.7607L33.999 55.3343C35.8865 53.4468 38.9468 53.4468 40.8343 55.3343C42.5767 57.0767 42.7107 59.8183 41.2364 61.7144L40.8343 62.1697L28.751 74.253C27.0087 75.9954 24.2671 76.1294 22.371 74.6551L21.9157 74.253L9.83232 62.1697L21.9157 74.253Z" fill="white"/>
<path fill-rule="evenodd" clip-rule="evenodd" d="M49 63.7184C49 55.5906 55.6056 49 63.7519 49C71.8982 49 78.5038 55.5906 78.5038 63.7184C78.5038 64.6621 78.4123 65.5906 78.2445 66.4886H57.8328C58.8397 69.3349 61.067 70.7808 63.8282 70.7808C66.4674 70.7808 67.6573 70.0046 68.5878 68.9087H77.558C75.4527 74.4795 70.0676 78.4368 63.7519 78.4368C55.6056 78.4368 49 71.8463 49 63.7184ZM63.7519 56.7169C61.067 56.7169 58.7787 58.2998 57.8328 60.9482H69.671C68.7404 58.2998 66.4368 56.7169 63.7519 56.7169Z" fill="white"/>
</svg>
